<svg xmlns="http://www.w3.org/2000/svg" viewBox="0 0 428.67 418.55"><defs><style>.cls-1{fill:#6422cd;}</style></defs><g id="Layer_2" data-name="Layer 2"><g id="Layer_1-2" data-name="Layer 1"><path class="cls-1" d="M403.81,109.45H17.72c-23.63.35-23.62-36.77,0-36.42H403.81C427.33,72.68,427.52,109.8,403.81,109.45Z"/><path class="cls-1" d="M72.84,393.7v-376c-.35-23.63,38.05-23.62,37.69,0v376C110.89,417.22,72.48,417.41,72.84,393.7Z"/><path class="cls-1" d="M392.39,186.24c-26.55-29.2-60.43-44-100.74-44-40.48,0-74.45,14.89-101,44.25-24.08,26.59-36.29,58.41-36.29,94.6,0,36.52,12.89,68.87,38.31,96.16s58.81,41.31,98.94,41.31c40,0,73.19-13.89,98.71-41.31s38.31-59.64,38.31-96.16C428.67,244.76,416.46,212.86,392.39,186.24ZM360.9,348.37c-17.91,19.25-41.23,29-69.28,29s-51.54-9.75-69.46-29-26.88-41.86-26.88-67.49c0-25.41,8.56-47.75,25.47-66.41,18.6-20.61,42.45-31.06,70.87-31.06s52.07,10.4,70.71,30.9c16.89,18.68,25.46,41.07,25.46,66.57S378.74,329.22,360.9,348.37Z"/></g></g></svg>