<svg width="811" height="598" viewBox="0 0 811 598" fill="none" xmlns="http://www.w3.org/2000/svg">
<g clip-path="url(#clip0_138_539)">
<path d="M809.828 593.414H1.17197C0.861141 593.414 0.563046 593.288 0.34326 593.064C0.123474 592.839 0 592.535 0 592.218C0 591.901 0.123474 591.596 0.34326 591.372C0.563046 591.148 0.861141 591.021 1.17197 591.021H809.828C810.139 591.021 810.437 591.148 810.657 591.372C810.877 591.596 811 591.901 811 592.218C811 592.535 810.877 592.839 810.657 593.064C810.437 593.288 810.139 593.414 809.828 593.414Z" fill="#CCCCCC"/>
<path d="M729.788 384.778H253.97C251.95 384.778 250.012 385.598 248.584 387.056C247.155 388.514 246.353 390.492 246.353 392.554C246.353 394.617 247.155 396.594 248.584 398.053C250.012 399.511 251.95 400.33 253.97 400.33H267.448V586.354C267.448 588.416 268.251 590.394 269.679 591.852C271.108 593.311 273.045 594.13 275.066 594.13C277.086 594.13 279.024 593.311 280.452 591.852C281.881 590.394 282.683 588.416 282.683 586.354L282.799 400.33H699.903V586.354C699.903 588.416 700.706 590.394 702.134 591.852C703.563 593.311 705.501 594.13 707.521 594.13C709.541 594.13 711.479 593.311 712.907 591.852C714.336 590.394 715.139 588.416 715.139 586.354V404.43L717.355 400.33H729.788C731.809 400.33 733.746 399.511 735.175 398.053C736.603 396.594 737.406 394.617 737.406 392.554C737.406 390.492 736.603 388.514 735.175 387.056C733.746 385.598 731.809 384.778 729.788 384.778Z" fill="#CCCCCC"/>
<path d="M517.768 388.847H373.637C370.846 388.844 368.171 387.711 366.197 385.697C364.224 383.682 363.114 380.951 363.111 378.102V297.102C363.114 294.254 364.224 291.522 366.197 289.508C368.171 287.494 370.846 286.361 373.637 286.357H517.768C520.558 286.361 523.234 287.494 525.207 289.508C527.181 291.522 528.291 294.254 528.294 297.102V378.102C528.291 380.951 527.181 383.682 525.207 385.697C523.234 387.711 520.558 388.844 517.768 388.847Z" fill="#3F3D56"/>
<path d="M517.767 294.627H373.638C372.995 294.628 372.378 294.89 371.924 295.354C371.469 295.818 371.213 296.447 371.212 297.103V378.104C371.213 378.761 371.469 379.39 371.924 379.854C372.378 380.318 372.995 380.579 373.638 380.581H517.767C518.409 380.579 519.026 380.318 519.48 379.854C519.935 379.39 520.191 378.761 520.192 378.104V297.103C520.191 296.447 519.935 295.818 519.48 295.354C519.026 294.89 518.41 294.628 517.767 294.627Z" fill="white"/>
<path d="M457.994 351.975C457.994 351.975 440.74 347.917 431.25 355.357C421.761 362.798 443.328 379.708 443.328 379.708L457.994 351.975Z" fill="#2F2E41"/>
<path d="M446.547 344.308C455.536 344.308 462.822 336.87 462.822 327.695C462.822 318.519 455.536 311.082 446.547 311.082C437.559 311.082 430.272 318.519 430.272 327.695C430.272 336.87 437.559 344.308 446.547 344.308Z" fill="#A0616A"/>
<path d="M433.962 304.373C435.048 302.493 436.621 300.955 438.508 299.93C440.396 298.905 442.524 298.432 444.658 298.564C446.89 298.85 449.069 299.472 451.122 300.411L461.762 304.648C464.515 305.744 467.53 307.087 468.725 309.846C469.833 312.406 469.006 315.364 468.169 318.03L464.188 330.702C463.747 327.834 462.99 325.026 461.932 322.331C460.857 319.618 458.914 317.356 456.419 315.914C453.655 314.467 450.398 314.497 447.296 314.649C442.902 314.865 438.124 315.436 435.002 318.599C433.345 320.396 432.222 322.636 431.762 325.059C431.31 327.468 431.083 329.916 431.083 332.37C429.281 329.208 427.763 325.887 426.548 322.446C425.549 319.884 424.979 317.168 424.863 314.413C424.759 311.634 425.662 308.914 427.4 306.772C428.282 305.726 429.434 304.952 430.724 304.537C432.014 304.123 433.392 304.085 434.702 304.427L433.962 304.373Z" fill="#2F2E41"/>
<path d="M485.408 366.382C485.255 365.821 484.944 365.318 484.512 364.937C484.081 364.556 483.548 364.314 482.982 364.24C482.945 364.214 482.906 364.19 482.865 364.169L458.569 350.27C457.875 349.873 457.058 349.764 456.288 349.967C455.517 350.169 454.853 350.667 454.434 351.356L447.789 362.338L437.78 352.122L437.621 351.959C437.107 351.435 436.429 351.112 435.705 351.048C434.982 350.983 434.259 351.181 433.664 351.606L413.696 365.879C413.661 365.879 413.625 365.891 413.59 365.891C412.635 366.054 411.762 366.544 411.116 367.282C410.471 368.019 410.091 368.959 410.039 369.947L409.523 380.582H489.264L485.408 366.382Z" fill="#6422CD"/>
<path d="M529.913 378.928H514.529C514.529 378.49 514.358 378.07 514.054 377.76C513.75 377.45 513.339 377.275 512.909 377.275H508.051C507.621 377.275 507.209 377.45 506.906 377.76C506.602 378.07 506.431 378.49 506.431 378.928H501.573C501.573 378.49 501.402 378.07 501.099 377.76C500.795 377.45 500.383 377.275 499.954 377.275H495.095C494.666 377.275 494.254 377.45 493.95 377.76C493.646 378.07 493.476 378.49 493.476 378.928H488.617C488.617 378.49 488.447 378.07 488.143 377.76C487.839 377.45 487.427 377.275 486.998 377.275H482.14C481.71 377.275 481.298 377.45 480.995 377.76C480.691 378.07 480.52 378.49 480.52 378.928H475.662C475.662 378.49 475.491 378.07 475.188 377.76C474.884 377.45 474.472 377.275 474.042 377.275H469.184C468.755 377.275 468.343 377.45 468.039 377.76C467.735 378.07 467.565 378.49 467.565 378.928H462.706C462.706 378.49 462.536 378.07 462.232 377.76C461.928 377.45 461.516 377.275 461.087 377.275H456.229C455.799 377.275 455.387 377.45 455.084 377.76C454.78 378.07 454.609 378.49 454.609 378.928H449.751C449.751 378.49 449.58 378.07 449.277 377.76C448.973 377.45 448.561 377.275 448.131 377.275H443.273C442.844 377.275 442.432 377.45 442.128 377.76C441.824 378.07 441.654 378.49 441.654 378.928H436.795C436.795 378.49 436.625 378.07 436.321 377.76C436.017 377.45 435.605 377.275 435.176 377.275H430.318C429.888 377.275 429.476 377.45 429.172 377.76C428.869 378.07 428.698 378.49 428.698 378.928H423.84C423.84 378.49 423.669 378.07 423.365 377.76C423.062 377.45 422.65 377.275 422.22 377.275H417.362C416.932 377.275 416.521 377.45 416.217 377.76C415.913 378.07 415.743 378.49 415.743 378.928H410.884C410.884 378.49 410.714 378.07 410.41 377.76C410.106 377.45 409.694 377.275 409.265 377.275H404.406C403.977 377.275 403.565 377.45 403.261 377.76C402.958 378.07 402.787 378.49 402.787 378.928H397.929C397.929 378.49 397.758 378.07 397.454 377.76C397.151 377.45 396.739 377.275 396.309 377.275H391.451C391.021 377.275 390.609 377.45 390.306 377.76C390.002 378.07 389.831 378.49 389.831 378.928H384.973C384.973 378.49 384.803 378.07 384.499 377.76C384.195 377.45 383.783 377.275 383.354 377.275H378.495C378.066 377.275 377.654 377.45 377.35 377.76C377.047 378.07 376.876 378.49 376.876 378.928H361.491C360.204 378.931 358.97 379.454 358.061 380.384C357.151 381.313 356.64 382.574 356.64 383.888C356.64 385.202 357.151 386.462 358.061 387.392C358.97 388.321 360.204 388.845 361.491 388.847H529.913C531.202 388.847 532.438 388.324 533.349 387.394C534.26 386.464 534.772 385.203 534.772 383.888C534.772 382.572 534.26 381.311 533.349 380.381C532.438 379.451 531.202 378.928 529.913 378.928Z" fill="#3F3D56"/>
<path d="M336.447 350.131V383.059H255.625C253.46 383.136 251.302 382.767 249.279 381.975C247.256 381.182 245.411 379.981 243.852 378.445C242.294 376.909 241.054 375.068 240.208 373.032C239.361 370.996 238.925 368.807 238.925 366.595C238.925 364.383 239.361 362.194 240.208 360.158C241.054 358.123 242.294 356.281 243.852 354.745C245.411 353.209 247.256 352.008 249.279 351.215C251.302 350.423 253.46 350.054 255.625 350.131H336.447Z" fill="#F2F2F2"/>
<path d="M338.432 382.806C338.432 383.142 338.302 383.464 338.069 383.702C337.836 383.939 337.521 384.072 337.192 384.073H254.186C249.678 384.073 245.355 382.245 242.167 378.991C238.979 375.737 237.188 371.323 237.188 366.722C237.188 362.12 238.979 357.707 242.167 354.453C245.355 351.199 249.678 349.371 254.186 349.371H337.192C337.521 349.371 337.836 349.504 338.069 349.742C338.302 349.979 338.432 350.301 338.432 350.637C338.432 350.973 338.302 351.295 338.069 351.533C337.836 351.77 337.521 351.904 337.192 351.904H254.186C250.339 351.907 246.65 353.47 243.93 356.248C241.21 359.027 239.683 362.794 239.683 366.722C239.683 370.649 241.21 374.416 243.93 377.195C246.65 379.973 250.339 381.536 254.186 381.54H337.192C337.521 381.54 337.836 381.673 338.069 381.911C338.302 382.148 338.432 382.47 338.432 382.806Z" fill="#6422CD"/>
<path d="M336.447 357.729H249.595C249.562 357.73 249.53 357.723 249.5 357.71C249.469 357.698 249.442 357.679 249.418 357.656C249.395 357.632 249.377 357.604 249.364 357.573C249.352 357.542 249.345 357.509 249.345 357.476C249.345 357.443 249.352 357.409 249.364 357.379C249.377 357.348 249.395 357.32 249.418 357.296C249.442 357.273 249.469 357.254 249.5 357.241C249.53 357.229 249.562 357.222 249.595 357.223H336.447C336.512 357.223 336.575 357.25 336.621 357.297C336.667 357.345 336.693 357.409 336.693 357.476C336.693 357.543 336.667 357.607 336.621 357.654C336.575 357.702 336.512 357.729 336.447 357.729Z" fill="#CCCCCC"/>
<path d="M336.447 363.808H249.595C249.562 363.809 249.53 363.802 249.5 363.79C249.469 363.777 249.442 363.758 249.418 363.735C249.395 363.711 249.377 363.683 249.364 363.652C249.352 363.622 249.345 363.588 249.345 363.555C249.345 363.522 249.352 363.489 249.364 363.458C249.377 363.427 249.395 363.399 249.418 363.375C249.442 363.352 249.469 363.333 249.5 363.321C249.53 363.308 249.562 363.302 249.595 363.302H336.447C336.512 363.302 336.575 363.329 336.621 363.377C336.667 363.424 336.693 363.488 336.693 363.555C336.693 363.622 336.667 363.686 336.621 363.734C336.575 363.781 336.512 363.808 336.447 363.808Z" fill="#CCCCCC"/>
<path d="M336.447 369.887H249.595C249.562 369.887 249.53 369.881 249.5 369.868C249.469 369.856 249.442 369.837 249.418 369.813C249.395 369.79 249.377 369.762 249.364 369.731C249.352 369.7 249.345 369.667 249.345 369.634C249.345 369.6 249.352 369.567 249.364 369.536C249.377 369.505 249.395 369.477 249.418 369.454C249.442 369.43 249.469 369.412 249.5 369.399C249.53 369.387 249.562 369.38 249.595 369.38H336.447C336.512 369.381 336.575 369.408 336.621 369.455C336.667 369.503 336.693 369.567 336.693 369.634C336.693 369.701 336.667 369.765 336.621 369.812C336.575 369.86 336.512 369.887 336.447 369.887Z" fill="#CCCCCC"/>
<path d="M336.447 375.967H249.595C249.562 375.967 249.53 375.96 249.5 375.948C249.469 375.935 249.442 375.917 249.418 375.893C249.395 375.869 249.377 375.841 249.364 375.811C249.352 375.78 249.345 375.747 249.345 375.713C249.345 375.68 249.352 375.647 249.364 375.616C249.377 375.585 249.395 375.557 249.418 375.534C249.442 375.51 249.469 375.491 249.5 375.479C249.53 375.466 249.562 375.46 249.595 375.46H336.447C336.512 375.46 336.575 375.487 336.621 375.535C336.667 375.582 336.693 375.646 336.693 375.713C336.693 375.78 336.667 375.844 336.621 375.892C336.575 375.939 336.512 375.966 336.447 375.967Z" fill="#CCCCCC"/>
<path d="M321.211 315.437V348.366H240.39C238.224 348.443 236.066 348.074 234.043 347.281C232.021 346.488 230.175 345.288 228.617 343.751C227.058 342.215 225.819 340.374 224.972 338.338C224.125 336.302 223.689 334.113 223.689 331.901C223.689 329.69 224.125 327.5 224.972 325.465C225.819 323.429 227.058 321.588 228.617 320.051C230.175 318.515 232.021 317.314 234.043 316.522C236.066 315.729 238.224 315.36 240.39 315.437H321.211Z" fill="#F2F2F2"/>
<path d="M323.197 348.113C323.197 348.449 323.066 348.771 322.833 349.008C322.6 349.246 322.285 349.379 321.956 349.379H238.951C236.718 349.379 234.508 348.93 232.446 348.058C230.383 347.186 228.509 345.908 226.931 344.297C225.353 342.686 224.101 340.773 223.246 338.668C222.392 336.563 221.952 334.307 221.952 332.028C221.952 329.75 222.392 327.493 223.246 325.388C224.101 323.283 225.353 321.37 226.931 319.759C228.509 318.148 230.383 316.87 232.446 315.998C234.508 315.126 236.718 314.677 238.951 314.677H321.956C322.285 314.677 322.601 314.811 322.833 315.048C323.066 315.286 323.197 315.608 323.197 315.944C323.197 316.28 323.066 316.602 322.833 316.839C322.601 317.077 322.285 317.21 321.956 317.21H238.951C235.103 317.214 231.414 318.776 228.694 321.555C225.975 324.334 224.447 328.101 224.447 332.028C224.447 335.956 225.975 339.723 228.694 342.501C231.414 345.28 235.103 346.843 238.951 346.846H321.956C322.285 346.846 322.6 346.98 322.833 347.217C323.066 347.455 323.197 347.777 323.197 348.113Z" fill="#3F3D56"/>
<path d="M321.211 323.036H234.36C234.327 323.036 234.295 323.03 234.264 323.017C234.234 323.004 234.206 322.986 234.183 322.962C234.16 322.939 234.142 322.911 234.129 322.88C234.116 322.849 234.11 322.816 234.11 322.783C234.11 322.749 234.116 322.716 234.129 322.685C234.142 322.654 234.16 322.626 234.183 322.603C234.206 322.579 234.234 322.561 234.264 322.548C234.295 322.535 234.327 322.529 234.36 322.529H321.211C321.277 322.53 321.34 322.557 321.386 322.604C321.432 322.652 321.458 322.716 321.458 322.783C321.458 322.85 321.432 322.914 321.386 322.961C321.34 323.009 321.277 323.035 321.211 323.036Z" fill="#CCCCCC"/>
<path d="M321.211 329.116H234.36C234.327 329.116 234.295 329.11 234.264 329.097C234.234 329.085 234.206 329.066 234.183 329.042C234.16 329.019 234.142 328.991 234.129 328.96C234.116 328.929 234.11 328.896 234.11 328.863C234.11 328.829 234.116 328.796 234.129 328.765C234.142 328.734 234.16 328.706 234.183 328.683C234.206 328.659 234.234 328.641 234.264 328.628C234.295 328.616 234.327 328.609 234.36 328.609H321.211C321.277 328.61 321.34 328.637 321.386 328.684C321.432 328.732 321.458 328.796 321.458 328.863C321.458 328.93 321.432 328.994 321.386 329.041C321.34 329.089 321.277 329.116 321.211 329.116Z" fill="#CCCCCC"/>
<path d="M321.211 335.195H234.36C234.327 335.195 234.295 335.188 234.264 335.176C234.234 335.163 234.206 335.145 234.183 335.121C234.16 335.097 234.142 335.069 234.129 335.039C234.116 335.008 234.11 334.975 234.11 334.941C234.11 334.908 234.116 334.875 234.129 334.844C234.142 334.813 234.16 334.785 234.183 334.762C234.206 334.738 234.234 334.719 234.264 334.707C234.295 334.694 234.327 334.688 234.36 334.688H321.211C321.277 334.688 321.34 334.715 321.386 334.763C321.432 334.81 321.458 334.874 321.458 334.941C321.458 335.008 321.432 335.072 321.386 335.12C321.34 335.167 321.277 335.194 321.211 335.195Z" fill="#CCCCCC"/>
<path d="M321.211 341.274H234.36C234.327 341.274 234.295 341.268 234.264 341.255C234.234 341.242 234.206 341.224 234.183 341.2C234.16 341.177 234.142 341.149 234.129 341.118C234.116 341.087 234.11 341.054 234.11 341.02C234.11 340.987 234.116 340.954 234.129 340.923C234.142 340.892 234.16 340.864 234.183 340.841C234.206 340.817 234.234 340.798 234.264 340.786C234.295 340.773 234.327 340.767 234.36 340.767H321.211C321.277 340.768 321.34 340.794 321.386 340.842C321.432 340.889 321.458 340.954 321.458 341.02C321.458 341.087 321.432 341.151 321.386 341.199C321.34 341.246 321.277 341.273 321.211 341.274Z" fill="#CCCCCC"/>
<path d="M415.231 500.103V471.392C415.231 470.123 414.737 468.906 413.858 468.008C412.979 467.111 411.787 466.607 410.543 466.607H303.894C302.651 466.607 301.459 467.111 300.58 468.008C299.7 468.906 299.207 470.123 299.207 471.392V500.103H415.231Z" fill="#CCCCCC"/>
<path d="M415.231 510.87H299.207V547.955H415.231V510.87Z" fill="#CCCCCC"/>
<path d="M299.207 558.721V587.432C299.207 588.701 299.7 589.918 300.58 590.815C301.459 591.713 302.651 592.217 303.894 592.217H410.543C411.787 592.217 412.979 591.713 413.858 590.815C414.737 589.918 415.231 588.701 415.231 587.432V558.721H299.207Z" fill="#CCCCCC"/>
<path d="M356.633 488.141C358.575 488.141 360.149 486.534 360.149 484.552C360.149 482.57 358.575 480.963 356.633 480.963C354.691 480.963 353.117 482.57 353.117 484.552C353.117 486.534 354.691 488.141 356.633 488.141Z" fill="white"/>
<path d="M356.633 535.992C358.575 535.992 360.149 534.385 360.149 532.403C360.149 530.421 358.575 528.814 356.633 528.814C354.691 528.814 353.117 530.421 353.117 532.403C353.117 534.385 354.691 535.992 356.633 535.992Z" fill="white"/>
<path d="M356.821 582.831C358.763 582.831 360.337 581.224 360.337 579.242C360.337 577.26 358.763 575.653 356.821 575.653C354.879 575.653 353.305 577.26 353.305 579.242C353.305 581.224 354.879 582.831 356.821 582.831Z" fill="white"/>
<path d="M402.077 433.871V466.8H321.255C319.09 466.877 316.932 466.508 314.909 465.715C312.886 464.922 311.04 463.722 309.482 462.185C307.923 460.649 306.684 458.808 305.838 456.772C304.991 454.736 304.555 452.547 304.555 450.335C304.555 448.124 304.991 445.935 305.838 443.899C306.684 441.863 307.923 440.022 309.482 438.485C311.04 436.949 312.886 435.748 314.909 434.956C316.932 434.163 319.09 433.794 321.255 433.871H402.077Z" fill="#F2F2F2"/>
<path d="M404.062 466.546C404.062 466.882 403.931 467.204 403.699 467.441C403.466 467.679 403.151 467.812 402.822 467.812H319.816C317.583 467.814 315.371 467.367 313.307 466.496C311.243 465.625 309.367 464.347 307.788 462.735C306.208 461.124 304.954 459.211 304.099 457.105C303.244 454.999 302.804 452.741 302.804 450.461C302.804 448.182 303.244 445.924 304.099 443.818C304.954 441.712 306.208 439.799 307.788 438.187C309.367 436.576 311.243 435.298 313.307 434.427C315.371 433.556 317.583 433.108 319.816 433.11H402.822C403.151 433.11 403.466 433.244 403.699 433.481C403.932 433.719 404.062 434.041 404.062 434.377C404.062 434.713 403.932 435.035 403.699 435.272C403.466 435.51 403.151 435.643 402.822 435.643H319.816C315.968 435.647 312.279 437.21 309.56 439.988C306.84 442.767 305.313 446.534 305.313 450.461C305.313 454.389 306.84 458.156 309.56 460.935C312.279 463.713 315.968 465.276 319.816 465.279H402.822C403.151 465.279 403.466 465.413 403.699 465.65C403.931 465.888 404.062 466.21 404.062 466.546Z" fill="#3F3D56"/>
<path d="M402.077 441.469H315.225C315.192 441.47 315.16 441.463 315.13 441.451C315.099 441.438 315.072 441.419 315.049 441.396C315.025 441.372 315.007 441.344 314.994 441.314C314.982 441.283 314.975 441.25 314.975 441.216C314.975 441.183 314.982 441.15 314.994 441.119C315.007 441.088 315.025 441.06 315.049 441.036C315.072 441.013 315.099 440.994 315.13 440.982C315.16 440.969 315.192 440.963 315.225 440.963H402.077C402.142 440.963 402.205 440.99 402.251 441.038C402.297 441.085 402.323 441.149 402.323 441.216C402.323 441.283 402.297 441.347 402.251 441.395C402.205 441.442 402.142 441.469 402.077 441.469Z" fill="#CCCCCC"/>
<path d="M402.077 447.549H315.225C315.192 447.549 315.16 447.542 315.13 447.53C315.099 447.517 315.072 447.499 315.049 447.475C315.025 447.451 315.007 447.423 314.994 447.393C314.982 447.362 314.975 447.329 314.975 447.295C314.975 447.262 314.982 447.229 314.994 447.198C315.007 447.167 315.025 447.139 315.049 447.116C315.072 447.092 315.099 447.073 315.13 447.061C315.16 447.048 315.192 447.042 315.225 447.042H402.077C402.142 447.042 402.205 447.069 402.251 447.117C402.297 447.164 402.323 447.228 402.323 447.295C402.323 447.362 402.297 447.426 402.251 447.474C402.205 447.521 402.142 447.548 402.077 447.549Z" fill="#CCCCCC"/>
<path d="M402.077 453.628H315.225C315.192 453.628 315.16 453.622 315.13 453.609C315.099 453.597 315.072 453.578 315.049 453.555C315.025 453.531 315.007 453.503 314.994 453.472C314.982 453.441 314.975 453.408 314.975 453.375C314.975 453.341 314.982 453.308 314.994 453.278C315.007 453.247 315.025 453.219 315.049 453.195C315.072 453.172 315.099 453.153 315.13 453.14C315.16 453.128 315.192 453.121 315.225 453.122H402.077C402.142 453.122 402.205 453.149 402.251 453.196C402.297 453.244 402.323 453.308 402.323 453.375C402.323 453.442 402.297 453.506 402.251 453.553C402.205 453.601 402.142 453.628 402.077 453.628Z" fill="#CCCCCC"/>
<path d="M402.077 459.708H315.225C315.192 459.708 315.16 459.702 315.13 459.689C315.099 459.676 315.072 459.658 315.049 459.634C315.025 459.611 315.007 459.583 314.994 459.552C314.982 459.521 314.975 459.488 314.975 459.454C314.975 459.421 314.982 459.388 314.994 459.357C315.007 459.326 315.025 459.298 315.049 459.275C315.072 459.251 315.099 459.233 315.13 459.22C315.16 459.207 315.192 459.201 315.225 459.201H402.077C402.142 459.202 402.205 459.229 402.251 459.276C402.297 459.323 402.323 459.388 402.323 459.454C402.323 459.521 402.297 459.586 402.251 459.633C402.205 459.68 402.142 459.707 402.077 459.708Z" fill="#CCCCCC"/>
<path d="M293.121 218.948V8.99786C293.123 6.61231 294.053 4.32525 295.705 2.63842C297.358 0.951581 299.598 0.00271348 301.935 0H464.521C466.858 0.00272928 469.098 0.951602 470.751 2.63844C472.403 4.32527 473.333 6.61232 473.335 8.99786V218.948C473.333 221.333 472.403 223.62 470.751 225.307C469.098 226.994 466.858 227.943 464.521 227.945H301.935C299.598 227.943 297.358 226.994 295.705 225.307C294.053 223.62 293.123 221.333 293.121 218.948ZM301.935 1.99953C300.118 2.0016 298.375 2.7396 297.09 4.05159C295.804 5.36358 295.081 7.14243 295.079 8.99786V218.948C295.081 220.803 295.804 222.582 297.09 223.894C298.375 225.206 300.118 225.944 301.935 225.946H464.521C466.338 225.944 468.081 225.206 469.366 223.894C470.652 222.582 471.374 220.803 471.377 218.948V8.99786C471.374 7.14243 470.652 5.36358 469.366 4.05159C468.081 2.7396 466.338 2.00161 464.521 1.99953H301.935Z" fill="#E6E6E6"/>
<path d="M392.345 96.4188V53.3095C392.347 52.1167 392.811 50.9732 393.638 50.1297C394.464 49.2863 395.584 48.8119 396.753 48.8105H432.541C433.71 48.8119 434.83 49.2863 435.656 50.1297C436.483 50.9732 436.947 52.1167 436.949 53.3095V96.4188C436.947 97.6116 436.483 98.7551 435.656 99.5985C434.83 100.442 433.71 100.916 432.541 100.918H396.753C395.584 100.916 394.464 100.442 393.638 99.5985C392.811 98.7551 392.347 97.6116 392.345 96.4188Z" fill="#6422CD"/>
<path d="M322.806 116.414V73.3051C322.807 72.1123 323.272 70.9687 324.098 70.1253C324.925 69.2819 326.045 68.8075 327.213 68.8062H363.002C364.17 68.8075 365.291 69.2819 366.117 70.1253C366.943 70.9687 367.408 72.1123 367.409 73.3051V116.414C367.408 117.607 366.943 118.751 366.117 119.594C365.291 120.438 364.17 120.912 363.002 120.913H327.213C326.045 120.912 324.925 120.438 324.098 119.594C323.272 118.751 322.807 117.607 322.806 116.414Z" fill="#CCCCCC"/>
<path d="M378.633 177.4V134.29C378.634 133.098 379.099 131.954 379.925 131.111C380.751 130.267 381.872 129.793 383.04 129.792H418.829C419.997 129.793 421.117 130.267 421.944 131.111C422.77 131.954 423.235 133.098 423.236 134.29V177.4C423.235 178.593 422.77 179.736 421.944 180.579C421.117 181.423 419.997 181.897 418.829 181.899H383.04C381.872 181.897 380.751 181.423 379.925 180.579C379.099 179.736 378.634 178.593 378.633 177.4Z" fill="#FF6584"/>
<path d="M592.502 374.492H555.679C555.33 374.492 554.985 374.574 554.671 374.731L545.378 379.481C545.072 379.613 544.811 379.835 544.628 380.118C544.444 380.401 544.346 380.732 544.346 381.072C544.346 381.411 544.444 381.743 544.628 382.026C544.811 382.308 545.072 382.53 545.378 382.663L554.671 387.412C554.985 387.57 555.33 387.652 555.679 387.651H592.502C593.01 387.681 593.508 387.506 593.89 387.163C594.272 386.821 594.506 386.338 594.542 385.821V376.322C594.506 375.805 594.272 375.323 593.89 374.98C593.508 374.637 593.01 374.462 592.502 374.492Z" fill="#3F3D56"/>
<path d="M594.542 376.323V385.821C594.506 386.339 594.272 386.821 593.89 387.163C593.509 387.506 593.01 387.681 592.502 387.651H585.166V374.492H592.502C593.01 374.462 593.509 374.637 593.89 374.98C594.272 375.323 594.506 375.805 594.542 376.323Z" fill="#6422CD"/>
<path d="M592.225 303.432C593.893 302.697 595.695 302.33 597.511 302.356C599.327 302.381 601.118 302.798 602.766 303.579C604.413 304.36 605.881 305.487 607.072 306.887C608.263 308.288 609.15 309.929 609.677 311.704C609.841 312.266 609.966 312.84 610.052 313.42L661.546 339.485L673.463 331.424L688.29 348.849L670.094 363.934C667.906 365.734 665.208 366.765 662.399 366.876C659.591 366.986 656.823 366.17 654.506 364.547L602.26 327.668C601.872 327.836 601.475 327.984 601.071 328.11C599.332 328.647 597.502 328.803 595.699 328.567C593.897 328.332 592.165 327.71 590.614 326.743C589.064 325.776 587.731 324.486 586.704 322.957C585.676 321.427 584.977 319.694 584.651 317.869C584.555 317.34 584.491 316.805 584.461 316.267C584.316 313.574 584.982 310.9 586.37 308.606C587.759 306.311 589.802 304.506 592.225 303.432Z" fill="#FFB8B8"/>
<path d="M699.477 463.914H643.211C643.211 465.564 585.222 466.904 585.222 466.904C584.312 467.604 583.483 468.407 582.75 469.297C580.547 471.978 579.343 475.368 579.351 478.867V481.26C579.352 485.225 580.896 489.028 583.643 491.832C586.39 494.636 590.115 496.212 594 496.214H699.477C703.361 496.21 707.086 494.634 709.832 491.83C712.579 489.026 714.123 485.225 714.127 481.26V478.867C714.121 474.903 712.576 471.103 709.83 468.3C707.084 465.496 703.361 463.919 699.477 463.914Z" fill="#3F3D56"/>
<path d="M638.273 596.107H653.508V495.619H638.273V596.107Z" fill="#3F3D56"/>
<path d="M594.911 595.561C594.911 597.242 617.998 596.211 646.477 596.211C674.956 596.211 698.044 597.242 698.044 595.561C698.044 593.881 674.956 580.556 646.477 580.556C617.998 580.556 594.911 593.881 594.911 595.561Z" fill="#3F3D56"/>
<path d="M608.664 583.784L594.297 583.783L587.46 545.744L608.666 545.745L608.664 583.784Z" fill="#FFB8B8"/>
<path d="M612.328 598L566 597.998V597.4C566 594.983 566.466 592.589 567.373 590.356C568.279 588.123 569.607 586.094 571.282 584.385C572.956 582.675 574.944 581.32 577.132 580.395C579.32 579.47 581.664 578.994 584.032 578.994H584.034L612.329 578.995L612.328 598Z" fill="#2F2E41"/>
<path d="M587.174 560.196L558.531 494.63C556.139 489.103 555.875 482.861 557.79 477.144C559.705 471.428 563.66 466.658 568.866 463.784L630.996 429.776L659.347 427.315L685.499 424.888L685.687 425.214C685.929 425.63 691.551 435.544 687.751 446.414C684.868 454.66 677.368 461.101 665.461 465.558C637.669 475.96 605.563 484.85 593.05 488.189C592.497 488.333 591.98 488.596 591.533 488.958C591.087 489.321 590.72 489.777 590.458 490.294C590.196 490.806 590.04 491.368 590 491.944C589.96 492.52 590.038 493.098 590.228 493.643L616.84 554.671C617.117 555.445 617.218 556.274 617.132 557.094C617.047 557.913 616.778 558.702 616.346 559.399C615.915 560.096 615.333 560.682 614.644 561.113C613.956 561.544 613.179 561.808 612.375 561.884L592.491 563.362C592.322 563.378 592.154 563.386 591.987 563.386C590.968 563.386 589.972 563.084 589.118 562.518C588.264 561.952 587.589 561.145 587.174 560.196Z" fill="#2F2E41"/>
<path d="M615.696 583.784L601.329 583.783L594.493 545.744L615.698 545.745L615.696 583.784Z" fill="#FFB8B8"/>
<path d="M619.36 598L573.031 597.998V597.4C573.031 594.983 573.498 592.589 574.404 590.356C575.31 588.123 576.639 586.094 578.313 584.385C579.988 582.675 581.975 581.32 584.163 580.395C586.351 579.47 588.696 578.994 591.064 578.994H591.065L619.361 578.995L619.36 598Z" fill="#2F2E41"/>
<path d="M595.378 563.784L566.734 498.218C564.342 492.692 564.078 486.449 565.993 480.733C567.909 475.016 571.863 470.246 577.069 467.373L639.199 433.365L667.55 430.903L693.702 428.477L693.891 428.803C694.132 429.218 699.755 439.132 695.954 450.003C693.071 458.248 685.572 464.689 673.665 469.146C645.872 479.548 613.766 488.439 601.253 491.777C600.7 491.922 600.183 492.184 599.737 492.547C599.29 492.91 598.924 493.365 598.662 493.883C598.399 494.394 598.243 494.956 598.203 495.532C598.164 496.108 598.241 496.687 598.432 497.231L625.043 558.259C625.321 559.033 625.421 559.862 625.335 560.682C625.25 561.502 624.981 562.29 624.55 562.987C624.118 563.684 623.536 564.271 622.847 564.702C622.159 565.132 621.383 565.396 620.579 565.472L600.694 566.95C600.525 566.966 600.357 566.975 600.19 566.975C599.172 566.974 598.175 566.673 597.321 566.107C596.467 565.54 595.792 564.734 595.378 563.784Z" fill="#2F2E41"/>
<path d="M581.101 363.488C569.064 347.145 559.549 329.018 552.885 309.736C552.499 308.583 552.527 307.327 552.963 306.192C553.399 305.058 554.215 304.118 555.266 303.54L596.456 281.012C597.122 280.645 597.861 280.437 598.618 280.406C599.375 280.375 600.128 280.52 600.822 280.831C601.528 281.144 602.155 281.618 602.655 282.216C603.155 282.813 603.514 283.52 603.706 284.281C608.5 302.861 617.512 320.029 630.012 334.395C630.526 334.979 630.903 335.676 631.114 336.432C631.325 337.188 631.364 337.983 631.229 338.757C631.098 339.518 630.799 340.239 630.355 340.865C629.91 341.491 629.331 342.005 628.663 342.368L587.474 364.896C586.42 365.469 585.201 365.642 584.034 365.385C582.867 365.127 581.828 364.455 581.101 363.488Z" fill="#CCCCCC"/>
<path d="M583.911 361.331C584.133 361.614 584.444 361.808 584.791 361.881C585.138 361.955 585.499 361.902 585.812 361.732L627.002 339.204C627.202 339.097 627.375 338.945 627.508 338.759C627.64 338.573 627.729 338.357 627.766 338.13C627.809 337.891 627.797 337.644 627.731 337.41C627.665 337.176 627.547 336.961 627.386 336.781C614.517 321.992 605.24 304.319 600.305 285.191C600.248 284.955 600.138 284.735 599.984 284.549C599.83 284.363 599.636 284.217 599.417 284.12C599.21 284.026 598.985 283.982 598.76 283.992C598.534 284.001 598.313 284.064 598.115 284.175L556.927 306.703C556.615 306.875 556.372 307.153 556.239 307.489C556.106 307.825 556.093 308.197 556.201 308.542C562.745 327.478 572.09 345.281 583.911 361.331Z" fill="white"/>
<path d="M717.937 357.479L685.679 369.991L677.803 347.66C676.758 344.695 676.773 341.448 677.845 338.493C678.918 335.538 680.98 333.065 683.666 331.511C686.383 329.939 689.561 329.411 692.627 330.022C695.692 330.633 698.442 332.342 700.381 334.842L717.937 357.479Z" fill="#6422CD"/>
<path d="M635.889 445.956C635.21 445.465 634.641 444.833 634.22 444.101C633.799 443.369 633.536 442.554 633.447 441.71C629.315 402.34 632.193 371.531 642.244 347.52C644.014 343.379 646.681 339.701 650.044 336.763C653.406 333.825 657.378 331.703 661.66 330.557L687.735 329.213L687.87 329.28C693.754 332.222 698.553 337.021 701.555 342.966C704.557 348.911 705.602 355.685 704.535 362.284C696.148 384.85 689.125 408.345 694.481 427.298C694.706 428.09 694.771 428.921 694.674 429.74C694.576 430.558 694.318 431.349 693.914 432.063C693.522 432.754 692.996 433.355 692.368 433.83C691.74 434.305 691.023 434.644 690.262 434.826L640.596 446.885C639.792 447.081 638.956 447.099 638.144 446.938C637.333 446.778 636.564 446.443 635.889 445.956Z" fill="#6422CD"/>
<path d="M679.032 319.272C694.93 319.272 707.817 306.117 707.817 289.89C707.817 273.662 694.93 260.507 679.032 260.507C663.135 260.507 650.248 273.662 650.248 289.89C650.248 306.117 663.135 319.272 679.032 319.272Z" fill="#FFB8B8"/>
<path d="M599.16 313.162L576.726 323.27C575.873 323.654 574.906 323.676 574.037 323.332C573.168 322.988 572.467 322.306 572.09 321.436L571.535 320.153C571.16 319.283 571.138 318.295 571.475 317.408C571.812 316.521 572.48 315.806 573.332 315.421L595.765 305.313C596.618 304.929 597.586 304.907 598.455 305.251C599.324 305.595 600.024 306.277 600.401 307.147L600.956 308.43C601.332 309.301 601.354 310.288 601.017 311.175C600.68 312.062 600.012 312.777 599.16 313.162Z" fill="#CCCCCC"/>
<path d="M607.363 328.713L584.93 338.822C584.077 339.205 583.109 339.227 582.24 338.883C581.371 338.539 580.671 337.858 580.293 336.988L579.739 335.705C579.363 334.834 579.341 333.846 579.678 332.959C580.015 332.072 580.683 331.357 581.535 330.972L603.969 320.864C604.822 320.481 605.789 320.459 606.658 320.802C607.527 321.146 608.227 321.828 608.605 322.698L609.16 323.981C609.535 324.852 609.557 325.839 609.22 326.726C608.883 327.614 608.215 328.328 607.363 328.713Z" fill="#CCCCCC"/>
<path d="M624.663 389.457L574.651 349.183C574.252 349.326 573.847 349.448 573.436 349.549C571.671 349.97 569.839 350.008 568.058 349.659C566.278 349.311 564.589 348.584 563.102 347.525C561.605 346.466 560.347 345.093 559.412 343.497C558.477 341.902 557.886 340.121 557.68 338.274C557.345 335.321 557.997 332.339 559.53 329.811C561.064 327.284 563.389 325.36 566.129 324.351C567.839 323.725 569.659 323.475 571.47 323.617C573.281 323.759 575.043 324.29 576.639 325.175C578.235 326.06 579.63 327.279 580.732 328.753C581.835 330.227 582.62 331.922 583.036 333.727C583.165 334.299 583.254 334.879 583.304 335.464L633.091 364.782L645.481 357.501L659.205 375.843L639.969 389.838C637.717 391.463 635.011 392.304 632.254 392.235C629.497 392.167 626.835 391.192 624.663 389.457Z" fill="#FFB8B8"/>
<path d="M665.309 381.555L636.773 361.748L650.184 342.36C651.964 339.785 654.579 337.936 657.566 337.139C660.554 336.342 663.72 336.649 666.507 338.005C669.327 339.377 671.573 341.732 672.84 344.646C674.106 347.56 674.311 350.841 673.416 353.895L665.309 381.555Z" fill="#6422CD"/>
<path d="M668.478 285.514C661.08 290.682 651.366 295.995 643.81 290.491C638.848 286.877 637.285 280.185 639.297 274.311C642.915 263.75 652.856 259.1 662.362 255.536C674.72 250.903 688.175 247.217 700.933 250.535C713.69 253.853 724.964 266.461 722.662 279.692C720.81 290.332 710.977 299.186 712.373 309.898C713.778 320.679 725.656 326.354 736.142 328.281C746.628 330.208 758.363 330.827 765.899 338.516C775.513 348.324 773.112 365.855 764.066 376.21C755.02 386.566 741.369 391.26 728.141 394.451C710.615 398.679 691.659 400.901 675.013 393.884C658.368 386.867 645.414 367.979 650.236 350.267C652.273 342.786 657.071 336.463 661.708 330.308C666.345 324.152 671.041 317.716 672.809 310.164C674.284 303.87 673.193 296.563 669.104 291.843C668.36 291.016 667.892 289.971 667.767 288.856C667.642 287.741 667.866 286.615 668.407 285.638L668.478 285.514Z" fill="#2F2E41"/>
<path d="M127.829 428.271C120.412 430.933 112.448 431.599 104.706 430.207C96.9626 428.815 89.7015 425.411 83.6216 420.322C68.1376 407.056 63.2829 385.201 59.3328 364.964C55.4382 345.011 51.5437 325.059 47.6492 305.106L72.11 322.299C89.7008 334.663 107.688 347.423 119.868 365.331C132.047 383.239 137.364 407.686 127.578 427.064" fill="#E6E6E6"/>
<path d="M125.738 500.742C128.214 482.334 130.76 463.689 129.023 445.084C127.481 428.561 122.542 412.422 112.488 399.189C107.151 392.179 100.657 386.172 93.2983 381.439C91.3793 380.203 89.6132 383.307 91.5238 384.538C104.257 392.753 114.105 404.882 119.65 419.179C125.773 435.077 126.756 452.407 125.701 469.295C125.063 479.509 123.711 489.655 122.348 499.788C122.24 500.246 122.307 500.729 122.535 501.139C122.763 501.548 123.135 501.854 123.576 501.995C124.025 502.119 124.504 502.057 124.909 501.822C125.314 501.587 125.612 501.199 125.738 500.742Z" fill="#F2F2F2"/>
<path d="M101.892 468.168C98.7107 473.104 94.3381 477.119 89.1951 479.829C84.0522 482.538 78.3124 483.85 72.5286 483.638C57.6644 482.918 45.2724 472.328 34.1172 462.274L1.12256 432.538L22.9596 431.471C38.6634 430.704 54.7725 429.988 69.7299 434.932C84.6873 439.875 98.4818 451.772 101.217 467.575" fill="#E6E6E6"/>
<path d="M132.735 511.324C120.819 489.801 106.997 465.881 82.2996 458.236C75.4326 456.117 68.232 455.358 61.0858 456C58.8335 456.198 59.3959 459.742 61.6441 459.544C73.6228 458.529 85.5784 461.758 95.4981 468.687C105.044 475.319 112.476 484.539 118.766 494.317C122.62 500.307 126.071 506.55 129.523 512.785C130.626 514.778 133.851 513.34 132.735 511.324Z" fill="#F2F2F2"/>
<path d="M151.828 533.978C151.427 529.229 149.756 524.683 146.999 520.837C144.242 516.99 140.504 513.989 136.191 512.161V499.718H115.746V512.553C111.646 514.471 108.117 517.464 105.52 521.228C102.922 524.991 101.349 529.391 100.961 533.978L96.1531 591.021H156.636L151.828 533.978Z" fill="#F2F2F2"/>
</g>
<defs>
<clipPath id="clip0_138_539">
<rect width="811" height="598" fill="white"/>
</clipPath>
</defs>
</svg>
